HIERARCHY
ROOT hip
{
  OFFSET 0 0 0
  CHANNELS 6 Xposition Yposition Zposition Zrotation Yrotation Xrotation
  JOINT abdomen
  {
    OFFSET 0 20.6881 -0.73152
    CHANNELS 3 Zrotation Xrotation Yrotation
    JOINT chest
    {
      OFFSET 0 11.7043 -0.48768
      CHANNELS 3 Zrotation Xrotation Yrotation
      JOINT neck
      {
        OFFSET 0 22.1894 -2.19456
        CHANNELS 3 Zrotation Xrotation Yrotation
        JOINT head
        {
          OFFSET -0.24384 7.07133 1.2192
          CHANNELS 3 Zrotation Xrotation Yrotation
          JOINT leftEye
          {
            OFFSET 4.14528 8.04674 8.04672
            CHANNELS 3 Zrotation Xrotation Yrotation
            End Site
            {
              OFFSET 1 0 0
            }
          }
          JOINT rightEye
          {
            OFFSET -3.6576 8.04674 8.04672
            CHANNELS 3 Zrotation Xrotation Yrotation
            End Site
            {
              OFFSET 1 0 0
            }
          }
        }
      }
      JOINT rCollar
      {
        OFFSET -2.68224 19.2634 -4.8768
        CHANNELS 3 Zrotation Xrotation Yrotation
        JOINT rShldr
        {
          OFFSET -8.77824 -1.95073 1.46304
          CHANNELS 3 Zrotation Xrotation Yrotation
          JOINT rForeArm
          {
            OFFSET -28.1742 -1.7115 0.48768
            CHANNELS 3 Zrotation Xrotation Yrotation
            JOINT rHand
            {
              OFFSET -22.5879 0.773209 7.07136
              CHANNELS 3 Zrotation Xrotation Yrotation
              JOINT rThumb1
              {
                OFFSET -1.2192 -0.487915 3.41376
                CHANNELS 3 Zrotation Xrotation Yrotation
                JOINT rThumb2
                {
                  OFFSET -3.37035 -0.52449 3.41376
                  CHANNELS 3 Zrotation Xrotation Yrotation
                  End Site
                  {
                    OFFSET -1.78271 -1.18214 1.43049
                  }
                }
              }
              JOINT rIndex1
              {
                OFFSET -7.75947 0.938293 5.60832
                CHANNELS 3 Zrotation Xrotation Yrotation
                JOINT rIndex2
                {
                  OFFSET -2.54057 -0.884171 1.56538
                  CHANNELS 3 Zrotation Xrotation Yrotation
                  End Site
                  {
                    OFFSET -1.62519 -0.234802 1.16502
                  }
                }
              }
              JOINT rMid1
              {
                OFFSET -8.24714 1.18213 3.41376
                CHANNELS 3 Zrotation Xrotation Yrotation
                JOINT rMid2
                {
                  OFFSET -3.10165 -0.590103 1.0647
                  CHANNELS 3 Zrotation Xrotation Yrotation
                  End Site
                  {
                    OFFSET -2.48547 -0.328903 0.83742
                  }
                }
              }
              JOINT rRing1
              {
                OFFSET -8.82822 0.546677 1.51678
                CHANNELS 3 Zrotation Xrotation Yrotation
                JOINT rRing2
                {
                  OFFSET -2.60934 -0.819778 -0.0198488
                  CHANNELS 3 Zrotation Xrotation Yrotation
                  End Site
                  {
                    OFFSET -2.33842 -0.294052 0.168128
                  }
                }
              }
              JOINT rPinky1
              {
                OFFSET -8.27202 -0.0477905 -0.4584
                CHANNELS 3 Zrotation Xrotation Yrotation
                JOINT rPinky2
                {
                  OFFSET -1.82734 -0.647385 -0.700984
                  CHANNELS 3 Zrotation Xrotation Yrotation
                  End Site
                  {
                    OFFSET -1.69225 -0.51767 -0.607171
                  }
                }
              }
            }
          }
        }
      }
      JOINT lCollar
      {
        OFFSET 2.68224 19.2634 -4.8768
        CHANNELS 3 Zrotation Xrotation Yrotation
        JOINT lShldr
        {
          OFFSET 8.77824 -1.95073 1.46304
          CHANNELS 3 Zrotation Xrotation Yrotation
          JOINT lForeArm
          {
            OFFSET 28.1742 -1.7115 0.48768
            CHANNELS 3 Zrotation Xrotation Yrotation
            JOINT lHand
            {
              OFFSET 22.5879 0.773209 7.07136
              CHANNELS 3 Zrotation Xrotation Yrotation
              JOINT lThumb1
              {
                OFFSET 1.2192 -0.487915 3.41376
                CHANNELS 3 Zrotation Xrotation Yrotation
                JOINT lThumb2
                {
                  OFFSET 3.37035 -0.52449 3.41376
                  CHANNELS 3 Zrotation Xrotation Yrotation
                  End Site
                  {
                    OFFSET 1.78271 -1.18214 1.43049
                  }
                }
              }
              JOINT lIndex1
              {
                OFFSET 7.75947 0.938293 5.60832
                CHANNELS 3 Zrotation Xrotation Yrotation
                JOINT lIndex2
                {
                  OFFSET 2.54057 -0.884171 1.56538
                  CHANNELS 3 Zrotation Xrotation Yrotation
                  End Site
                  {
                    OFFSET 1.62519 -0.234802 1.16502
                  }
                }
              }
              JOINT lMid1
              {
                OFFSET 8.24714 1.18213 3.41376
                CHANNELS 3 Zrotation Xrotation Yrotation
                JOINT lMid2
                {
                  OFFSET 3.10165 -0.590103 1.0647
                  CHANNELS 3 Zrotation Xrotation Yrotation
                  End Site
                  {
                    OFFSET 2.48547 -0.328903 0.83742
                  }
                }
              }
              JOINT lRing1
              {
                OFFSET 8.82822 0.546677 1.51678
                CHANNELS 3 Zrotation Xrotation Yrotation
                JOINT lRing2
                {
                  OFFSET 2.60934 -0.819778 -0.0198488
                  CHANNELS 3 Zrotation Xrotation Yrotation
                  End Site
                  {
                    OFFSET 2.33842 -0.294052 0.168128
                  }
                }
              }
              JOINT lPinky1
              {
                OFFSET 8.27202 -0.0477905 -0.4584
                CHANNELS 3 Zrotation Xrotation Yrotation
                JOINT lPinky2
                {
                  OFFSET 1.82734 -0.647385 -0.700984
                  CHANNELS 3 Zrotation Xrotation Yrotation
                  End Site
                  {
                    OFFSET 1.69225 -0.51767 -0.607171
                  }
                }
              }
            }
          }
        }
      }
    }
  }
  JOINT rButtock
  {
    OFFSET -8.77824 4.35084 1.2192
    CHANNELS 3 Zrotation Xrotation Yrotation
    JOINT rThigh
    {
      OFFSET 0 -1.70687 -2.19456
      CHANNELS 3 Zrotation Xrotation Yrotation
      JOINT rShin
      {
        OFFSET 0 -36.8199 0.73152
        CHANNELS 3 Zrotation Xrotation Yrotation
        JOINT rFoot
        {
          OFFSET 0.73152 -45.1104 -5.12064
          CHANNELS 3 Zrotation Xrotation Yrotation
          End Site
          {
            OFFSET -1.1221 -3.69964 12.103
          }
        }
      }
    }
  }
  JOINT lButtock
  {
    OFFSET 8.77824 4.35084 1.2192
    CHANNELS 3 Zrotation Xrotation Yrotation
    JOINT lThigh
    {
      OFFSET 0 -1.70687 -2.19456
      CHANNELS 3 Zrotation Xrotation Yrotation
      JOINT lShin
      {
        OFFSET 0 -36.8199 0.73152
        CHANNELS 3 Zrotation Xrotation Yrotation
        JOINT lFoot
        {
          OFFSET -0.73152 -45.1104 -5.12064
          CHANNELS 3 Zrotation Xrotation Yrotation
          End Site
          {
            OFFSET 1.1221 -3.69964 12.103
          }
        }
      }
    }
  }
}
MOTION
Frames:	4
Frame Time:	0.03333
-6.345199999999999 23.218 -1.4612 22.417889 -82.887972 -15.438671 -94.223301 26.169843 -88.134662 86.608037 44.431219 30.953466 159.520322 58.707102 -114.3615 41.780177 -13.199767 -72.589206 -3.042773 0.484112 -18.076168 10.592105 -2.986071 -31.409316 55.69071 64.228043 -38.852087 58.904689 5.815004 22.758769 75.089726 -34.195761 87.626624 26.534504 66.465699 -33.689885 -177.068982 19.730081 90.151184 -91.748011 -0.740357 45.86615 -15.438594 -8.606669 -2.177852 -14.782629 -64.146957 -138.6995 46.812858 -0.075172 -28.884078 78.920799 -16.531191 130.016319 -124.628301 -3.034326 -172.267974 24.067601 25.021269 0.99092 -179.273388 60.035976 -130.749373 -162.533237 10.457099 -151.825566 145.440314 11.408134 -162.105162 8.618373 0.001057 -32.272303 -25.282714 65.488684 95.915946 -155.022137 -5.890627 -151.012086 8.597583 0.463717 2.371496 2.34793 29.795948 -36.673229 105.728213 41.232919 -75.66451 -12.28051 -30.105838 -41.142769 138.442468 0.928494 -130.254577 1.518104 -5.570842 -9.876092 25.021565 24.214804 -11.76737 -42.763066 13.471336 -35.690428 -35.461563 -39.428843 5.470115 62.63297 87.282758 -90.063226 86.558115 60.013669 46.489915 -110.407424 -12.181012 32.161675 81.186376 9.127984 1.221302 -49.640418 28.627597 -82.73001 142.47587 64.696245 40.347974 123.251894 41.768496 66.406194 50.077962 53.776821 53.208065 118.870113 2.591222 41.421245
-6.0343 18.5566 -1.401 16.19606 -83.114223 -8.912538 -71.192916 32.097099 79.742672 -84.53095 -30.584037 -123.8696 172.841319 32.683426 -51.472693 -11.631037 -39.210664 -144.036967 -4.529314 0.461783 -11.636902 13.139823 -3.8065 -32.18858 102.979269 59.696262 -77.096916 173.751139 -63.796351 111.105568 126.426186 -72.723377 45.844402 151.023628 15.998033 153.907974 -139.487058 42.985912 64.270143 -140.831719 -25.548749 66.589253 153.010787 -66.841999 117.098874 -16.946087 51.371284 -67.659326 -93.628017 -52.01862 -162.943369 41.468231 64.594536 48.060503 -125.717814 -6.198256 -168.221092 32.518646 -30.742473 6.59071 -45.074188 -24.706069 -36.419689 -144.813313 60.570515 -138.743386 2.627955 34.944533 -5.271472 -40.045739 10.979419 4.984307 -19.581333 14.492418 -38.128265 -9.67109 54.027954 4.909374 175.023309 6.531211 -88.975916 -51.357859 -80.581981 -64.898435 155.727381 12.785157 -116.818303 20.405994 -65.089414 11.525615 77.323913 56.194356 -83.862161 -163.240607 -63.264693 -133.745316 21.915123 -7.029896 1.137697 108.731694 -30.292783 -164.468664 -47.895631 -44.350958 -6.385401 27.265023 61.163975 -24.902284 -9.17599 1.330001 12.198391 49.609751 -51.43446 43.19844 55.990348 74.656372 -147.501153 -161.871829 11.627458 -68.903667 7.7852 5.769061 -10.858852 -46.967908 -13.380997 -77.808629 -65.450481 34.954805 174.835711 -127.243449 10.976497 -47.787254
-5.7905 15.389700000000001 -1.459 20.015872 -83.733922 -12.422898 -44.710215 23.794335 67.826317 -84.145405 -15.710244 -108.665567 -143.150342 -5.359928 93.253137 68.779476 48.571136 9.073645 -30.894935 1.882889 -6.80633 -20.000831 3.755085 -21.062426 -147.188193 13.594252 -157.486938 2.925156 -9.723027 61.68924 -9.534659 60.552184 -69.758372 150.951765 -9.711921 142.557941 -3.443008 -17.768615 -6.022258 -67.123349 -79.327359 -137.372957 -148.591818 11.615421 120.676444 101.829459 -6.846608 101.664157 67.588485 61.221838 -21.295242 66.50733 57.785468 -152.781216 -118.331615 2.572147 -176.449414 -6.871362 -62.169244 -19.831474 -169.099278 43.891465 -120.736319 170.144489 52.681971 -152.82221 75.377444 -78.184933 90.373755 -158.904881 -25.265854 170.04148 44.537733 -3.529401 -21.729886 -23.714974 -13.535555 -13.841206 -177.185947 -21.0752 -86.090284 -29.062318 -70.446366 -8.691049 -9.657071 -18.991128 9.981294 -63.916221 1.330629 9.653449 152.751266 -27.0474 -142.802698 177.349554 13.33889 -150.869079 81.266662 -78.01554 94.854491 110.792879 -35.103998 135.47385 -2.340403 -51.71191 45.157786 140.48862 -42.091314 142.682704 -136.825183 61.499335 -46.873116 -162.062216 8.745116 115.157709 82.155286 -35.341163 177.971207 125.193491 53.703274 15.60144 6.161422 6.170718 -8.596083 -47.45756 -13.060681 82.9791 66.498112 -11.764989 -70.185444 -136.442387 -23.086389 -95.240671
-5.6631 14.8672 -1.5716 22.251995 -83.11717 -15.131709 -30.703496 17.271753 8.665921 -38.521376 -61.965704 -53.805066 -155.178147 -16.329093 7.140861 -92.125327 65.524365 -162.075178 -41.847466 6.978087 -18.12113 -34.830469 5.164686 -16.364192 -1.333235 -29.900815 -36.845718 10.743414 12.137807 -57.073089 176.257617 -73.401575 92.086961 154.730809 -13.072911 140.393036 -1.626684 -9.551013 -3.353429 35.147079 -77.331857 -20.668725 -153.009946 -22.467454 132.65627 -131.968017 72.72793 46.609583 64.932196 7.639567 -25.059614 -157.804715 58.908 38.459872 27.998753 -1.565411 2.305689 1.408729 62.421212 29.579427 73.023559 69.237975 -12.883372 -155.596327 -39.250253 -141.67564 163.61799 -31.624902 -177.538445 170.379399 59.083033 -120.484842 63.916839 79.596542 -109.441152 -9.857181 30.909259 5.100311 153.434818 -20.62281 -92.125292 164.401765 -52.672512 -107.785954 13.365268 42.387417 -18.25064 169.928495 -26.133958 -76.43348 -30.035381 -19.734133 -5.220117 134.277713 2.869995 -172.207868 -11.611906 -8.021163 -4.078002 9.894138 69.439007 -32.131711 127.01489 30.41942 127.162989 157.407813 -12.584699 124.756652 72.146829 55.896389 47.653442 -103.861796 -23.255126 60.241302 76.240485 -10.275332 -136.042708 101.091171 -8.437727 34.146747 5.280339 1.90622 -6.996773 -42.949179 -7.393596 97.870861 69.71764 -8.808179 -173.004302 -92.018643 43.251776 -112.239408
